<?xml version="1.0" encoding="UTF-8" standalone="no"?>
<!-- Converted with SVG Converter - Version 0.9.5 (Compiled Mon May 30 09:08:51 2011) - Copyright (C) 2011 Nokia -->

<svg
   xmlns:dc="http://purl.org/dc/elements/1.1/"
   xmlns:cc="http://creativecommons.org/ns#"
   xmlns:rdf="http://www.w3.org/1999/02/22-rdf-syntax-ns#"
   xmlns:svg="http://www.w3.org/2000/svg"
   xmlns="http://www.w3.org/2000/svg"
   xmlns:xlink="http://www.w3.org/1999/xlink"
   xmlns:sodipodi="http://sodipodi.sourceforge.net/DTD/sodipodi-0.dtd"
   xmlns:inkscape="http://www.inkscape.org/namespaces/inkscape"
   width="96"
   version="1.1"
   height="96"
   viewBox="0 0 96 96"
   id="svg2"
   inkscape:version="0.48.2 r9819"
   sodipodi:docname="ionic.svg">
  <sodipodi:namedview
     pagecolor="#ffffff"
     bordercolor="#666666"
     borderopacity="1"
     objecttolerance="10"
     gridtolerance="10"
     guidetolerance="10"
     inkscape:pageopacity="0"
     inkscape:pageshadow="2"
     inkscape:window-width="1920"
     inkscape:window-height="1020"
     id="namedview154"
     showgrid="false"
     inkscape:zoom="8.6031325"
     inkscape:cx="30.041425"
     inkscape:cy="48"
     inkscape:window-x="-4"
     inkscape:window-y="-4"
     inkscape:window-maximized="1"
     inkscape:current-layer="svg2" />
  <metadata
     id="metadata95">
    <rdf:RDF>
      <cc:Work
         rdf:about="">
        <dc:format>image/svg+xml</dc:format>
        <dc:type
           rdf:resource="http://purl.org/dc/dcmitype/StillImage" />
      </cc:Work>
    </rdf:RDF>
  </metadata>
  <defs
     id="defs93"><linearGradient
   id="linearGradient3879">
  <stop
     offset="0"
     style="stop-color:#000000;stop-opacity:1"
     id="stop3881" />
  <stop
     offset="1"
     style="stop-color:#000000;stop-opacity:0.40707964"
     id="stop3883" />
</linearGradient>
<linearGradient
   gradientTransform="matrix(1.0515857,0,0,1.01708,-253.45339,-715.60427)"
   id="linearGradient3108"
   y1="763.97272"
   x1="254.83009"
   y2="763.97272"
   x2="358.8096"
   gradientUnits="userSpaceOnUse">
  <stop
     offset="0"
     style="stop-color:#f7f8f9;stop-opacity:1"
     id="stop341" />
  <stop
     offset="1"
     style="stop-color:#d0d1d2;stop-opacity:1"
     id="stop343" />
</linearGradient>
<linearGradient
   gradientTransform="matrix(0.7261569,0,0,0.74770351,-174.61605,-527.27145)"
   id="linearGradient3446"
   y1="763.97272"
   x1="254.83009"
   y2="763.97272"
   x2="358.8096"
   gradientUnits="userSpaceOnUse">
  <stop
     offset="0"
     style="stop-color:#f7f8f9;stop-opacity:1"
     id="stop12" />
  <stop
     offset="1"
     style="stop-color:#d0d1d2;stop-opacity:1"
     id="stop14" />
</linearGradient>
<linearGradient
   gradientTransform="matrix(1,0,0,-1,-1.3115644,98.868328)"
   id="SVGID_7_-1"
   y1="57.299801"
   x1="61.075901"
   y2="41.540901"
   x2="34.694302"
   gradientUnits="userSpaceOnUse">
  <stop
     offset="0"
     style="stop-color:#ffffff;stop-opacity:1"
     id="stop63" />
  <stop
     offset="1"
     style="stop-color:#ffffff;stop-opacity:0.2"
     id="stop65-6" />
</linearGradient>
<linearGradient
   gradientTransform="matrix(1,0,0,-1,1.0534719,96.841079)"
   id="linearGradient3174"
   y1="57.299801"
   x1="61.075901"
   y2="41.540901"
   x2="34.694302"
   gradientUnits="userSpaceOnUse">
  <stop
     offset="0"
     style="stop-color:#ffffff;stop-opacity:1"
     id="stop20" />
  <stop
     offset="1"
     style="stop-color:#ffffff;stop-opacity:0.2"
     id="stop22" />
</linearGradient>
<linearGradient
   gradientTransform="matrix(1,0,0,-1,-2.4150126,95.9258)"
   id="SVGID_4_-0"
   y1="56.8027"
   x1="34.720501"
   y2="41.976002"
   x2="60.039902"
   gradientUnits="userSpaceOnUse">
  <stop
     offset="0"
     style="stop-color:#ffffff;stop-opacity:1"
     id="stop42" />
  <stop
     offset="1"
     style="stop-color:#ffffff;stop-opacity:0.2"
     id="stop44-1" />
</linearGradient>
<linearGradient
   gradientTransform="matrix(1,0,0,-1,-2.5350845,97.20939)"
   id="linearGradient3190"
   y1="56.8027"
   x1="34.720501"
   y2="41.976002"
   x2="60.039902"
   gradientUnits="userSpaceOnUse">
  <stop
     offset="0"
     style="stop-color:#ffffff;stop-opacity:1"
     id="stop28" />
  <stop
     offset="1"
     style="stop-color:#ffffff;stop-opacity:0.2"
     id="stop30" />
</linearGradient>
<linearGradient
   gradientTransform="matrix(1,0,0,-1,0.1597,95.9258)"
   id="SVGID_11_"
   y1="26.3545"
   x1="63.148201"
   y2="22.778099"
   x2="61.403599"
   gradientUnits="userSpaceOnUse">
  <stop
     offset="0"
     style="stop-color:#ffffff;stop-opacity:1"
     id="stop111" />
  <stop
     offset="1"
     style="stop-color:#a3a3a3;stop-opacity:1"
     id="stop113" />
</linearGradient>
<linearGradient
   gradientTransform="matrix(1,0,0,-1,0.1597,95.9258)"
   id="linearGradient3266"
   y1="26.3545"
   x1="63.148201"
   y2="22.778099"
   x2="61.403599"
   gradientUnits="userSpaceOnUse">
  <stop
     offset="0"
     style="stop-color:#ffffff;stop-opacity:1"
     id="stop36" />
  <stop
     offset="1"
     style="stop-color:#a3a3a3;stop-opacity:1"
     id="stop38" />
</linearGradient>
<linearGradient
   gradientTransform="matrix(1,0,0,-1,0.1597,95.9258)"
   id="SVGID_12_"
   y1="40.8223"
   x1="62.543701"
   y2="37.072102"
   x2="64.113503"
   gradientUnits="userSpaceOnUse">
  <stop
     offset="0"
     style="stop-color:#ffffff;stop-opacity:1"
     id="stop118" />
  <stop
     offset="1"
     style="stop-color:#a3a3a3;stop-opacity:1"
     id="stop120" />
</linearGradient>
<linearGradient
   gradientTransform="matrix(1,0,0,-1,0.1597,95.9258)"
   id="linearGradient3282"
   y1="40.8223"
   x1="62.543701"
   y2="37.072102"
   x2="64.113503"
   gradientUnits="userSpaceOnUse">
  <stop
     offset="0"
     style="stop-color:#ffffff;stop-opacity:1"
     id="stop44" />
  <stop
     offset="1"
     style="stop-color:#a3a3a3;stop-opacity:1"
     id="stop46" />
</linearGradient>
<linearGradient
   gradientTransform="matrix(1,0,0,-1,0.1597,95.9258)"
   id="SVGID_15_"
   y1="40.209"
   x1="45.003201"
   y2="23.3596"
   x2="45.003201"
   gradientUnits="userSpaceOnUse">
  <stop
     offset="0"
     style="stop-color:#c2de91;stop-opacity:1"
     id="stop141" />
  <stop
     offset="1"
     style="stop-color:#7b9e56;stop-opacity:1"
     id="stop143" />
</linearGradient>
<linearGradient
   gradientTransform="matrix(1,0,0,-1,0.1597,95.9258)"
   id="linearGradient3298"
   y1="40.209"
   x1="45.003201"
   y2="23.3596"
   x2="45.003201"
   gradientUnits="userSpaceOnUse">
  <stop
     offset="0"
     style="stop-color:#c2de91;stop-opacity:1"
     id="stop52" />
  <stop
     offset="1"
     style="stop-color:#7b9e56;stop-opacity:1"
     id="stop54" />
</linearGradient>
<linearGradient
   gradientTransform="matrix(1,0,0,-1,0.1597,95.9258)"
   id="SVGID_15_-4"
   y1="40.209"
   x1="45.003201"
   y2="23.3596"
   x2="45.003201"
   gradientUnits="userSpaceOnUse">
  <stop
     offset="0"
     style="stop-color:#c2de91;stop-opacity:1"
     id="stop141-6" />
  <stop
     offset="1"
     style="stop-color:#7b9e56;stop-opacity:1"
     id="stop143-2" />
</linearGradient>
<linearGradient
   gradientTransform="matrix(1,0,0,-1,0.1597,95.9258)"
   id="linearGradient3298-5"
   y1="40.209"
   x1="45.003201"
   y2="23.3596"
   x2="45.003201"
   gradientUnits="userSpaceOnUse">
  <stop
     offset="0"
     style="stop-color:#c2de91;stop-opacity:1"
     id="stop60" />
  <stop
     offset="1"
     style="stop-color:#7b9e56;stop-opacity:1"
     id="stop62" />
</linearGradient>
<linearGradient
   gradientTransform="matrix(1,0,0,-1,0.1597,95.9258)"
   id="SVGID_15_-6"
   y1="40.209"
   x1="45.003201"
   y2="23.3596"
   x2="45.003201"
   gradientUnits="userSpaceOnUse">
  <stop
     offset="0"
     style="stop-color:#c2de91;stop-opacity:1"
     id="stop141-7" />
  <stop
     offset="1"
     style="stop-color:#7b9e56;stop-opacity:1"
     id="stop143-1" />
</linearGradient>
<linearGradient
   gradientTransform="matrix(1,0,0,-1,0.1597,95.9258)"
   id="linearGradient3298-1"
   y1="40.209"
   x1="45.003201"
   y2="23.3596"
   x2="45.003201"
   gradientUnits="userSpaceOnUse">
  <stop
     offset="0"
     style="stop-color:#c2de91;stop-opacity:1"
     id="stop68" />
  <stop
     offset="1"
     style="stop-color:#7b9e56;stop-opacity:1"
     id="stop70" />
</linearGradient>
<linearGradient
   gradientTransform="matrix(1,0,0,-1,8.6194701,63.557984)"
   id="SVGID_18_"
   y1="37.415001"
   x1="82.677498"
   y2="54.1577"
   x2="82.677498"
   gradientUnits="userSpaceOnUse">
  <stop
     offset="0"
     style="stop-color:#ffffff;stop-opacity:0.30000001"
     id="stop162" />
  <stop
     offset="1"
     style="stop-color:#ffffff;stop-opacity:1"
     id="stop164" />
</linearGradient>
<linearGradient
   gradientTransform="matrix(1,0,0,-1,-53.620329,92.86676)"
   id="linearGradient3314"
   y1="37.415001"
   x1="82.677498"
   y2="54.1577"
   x2="82.677498"
   gradientUnits="userSpaceOnUse">
  <stop
     offset="0"
     style="stop-color:#ffffff;stop-opacity:0.30000001"
     id="stop76" />
  <stop
     offset="1"
     style="stop-color:#ffffff;stop-opacity:1"
     id="stop78" />
</linearGradient>
<linearGradient
   gradientTransform="matrix(1,0,0,-1,8.6194701,63.557984)"
   id="SVGID_18_-6"
   y1="37.415001"
   x1="82.677498"
   y2="54.1577"
   x2="82.677498"
   gradientUnits="userSpaceOnUse">
  <stop
     offset="0"
     style="stop-color:#ffffff;stop-opacity:0.30000001"
     id="stop162-0" />
  <stop
     offset="1"
     style="stop-color:#ffffff;stop-opacity:1"
     id="stop164-3" />
</linearGradient>
<linearGradient
   gradientTransform="matrix(1,0,0,-1,-15.367455,78.154116)"
   id="linearGradient3314-9"
   y1="37.415001"
   x1="82.677498"
   y2="54.1577"
   x2="82.677498"
   gradientUnits="userSpaceOnUse">
  <stop
     offset="0"
     style="stop-color:#ffffff;stop-opacity:0.30000001"
     id="stop84" />
  <stop
     offset="1"
     style="stop-color:#ffffff;stop-opacity:1"
     id="stop86" />
</linearGradient>
<linearGradient
   gradientTransform="matrix(1,0,0,-1,8.6194701,63.557984)"
   id="SVGID_18_-9"
   y1="37.415001"
   x1="82.677498"
   y2="54.1577"
   x2="82.677498"
   gradientUnits="userSpaceOnUse">
  <stop
     offset="0"
     style="stop-color:#ffffff;stop-opacity:0.30000001"
     id="stop162-4" />
  <stop
     offset="1"
     style="stop-color:#ffffff;stop-opacity:1"
     id="stop164-8" />
</linearGradient>
<linearGradient
   gradientTransform="matrix(1,0,0,-1,-18.309984,107.94722)"
   id="linearGradient3314-0"
   y1="37.415001"
   x1="82.677498"
   y2="54.1577"
   x2="82.677498"
   gradientUnits="userSpaceOnUse">
  <stop
     offset="0"
     style="stop-color:#ffffff;stop-opacity:0.30000001"
     id="stop92" />
  <stop
     offset="1"
     style="stop-color:#ffffff;stop-opacity:1"
     id="stop94" />
</linearGradient>
<linearGradient
   gradientTransform="matrix(0.99984557,-0.01757403,0.01757403,0.99984557,-0.58869627,0.82345797)"
   id="linearGradient3885"
   y1="33.980049"
   x1="29.875767"
   y2="33.980049"
   x2="63.37949"
   gradientUnits="userSpaceOnUse">
  <stop
     offset="0"
     style="stop-color:#000000;stop-opacity:1"
     id="stop97" />
  <stop
     offset="1"
     style="stop-color:#000000;stop-opacity:0.40707964"
     id="stop99" />
</linearGradient>
<linearGradient
   id="linearGradient3893"
   y1="63.898457"
   x1="30.221115"
   y2="63.898457"
   x2="67.151581"
   gradientUnits="userSpaceOnUse">
  <stop
     offset="0"
     style="stop-color:#000000;stop-opacity:1"
     id="stop102" />
  <stop
     offset="1"
     style="stop-color:#000000;stop-opacity:0.40707964"
     id="stop104" />
</linearGradient>
<radialGradient
   r="9.1923885"
   fy="18.124739"
   fx="27.930717"
   cy="18.124739"
   cx="27.930717"
   gradientUnits="userSpaceOnUse"
   id="radialGradient4130"
   xlink:href="#linearGradient7473"
   inkscape:collect="always" />
<linearGradient
   id="linearGradient7473">
  <stop
     style="stop-color:white;stop-opacity:1;"
     offset="0"
     id="stop7475" />
  <stop
     id="stop7481"
     offset="0.5"
     style="stop-color:#fffc9d;stop-opacity:0.97254902;" />
  <stop
     style="stop-color:#fff409;stop-opacity:0.67676765;"
     offset="0.75"
     id="stop7483" />
  <stop
     style="stop-color:#fff409;stop-opacity:0;"
     offset="1"
     id="stop7477" />
</linearGradient>
<linearGradient
   id="linearGradient4625">
  <stop
     id="stop4627"
     offset="0"
     style="stop-color:#f4f4ee;stop-opacity:1;" />
  <stop
     id="stop4629"
     offset="1.0000000"
     style="stop-color:#b2b2ad;stop-opacity:1.0000000" />
</linearGradient>
<linearGradient
   id="linearGradient8304">
  <stop
     id="stop8306"
     offset="0.0000000"
     style="stop-color:#ffffff;stop-opacity:0.75000000;" />
  <stop
     id="stop8308"
     offset="1"
     style="stop-color:#ffffff;stop-opacity:0;" />
</linearGradient>
<linearGradient
   id="linearGradient9040">
  <stop
     id="stop9042"
     offset="0.0000000"
     style="stop-color:#000000;stop-opacity:0.57291669;" />
  <stop
     id="stop9044"
     offset="1"
     style="stop-color:#000000;stop-opacity:0;" />
</linearGradient>
<linearGradient
   id="linearGradient9796">
  <stop
     id="stop9798"
     offset="0.0000000"
     style="stop-color:#000000;stop-opacity:0.65625000;" />
  <stop
     id="stop9800"
     offset="1"
     style="stop-color:#000000;stop-opacity:0;" />
</linearGradient>
<linearGradient
   id="linearGradient10532">
  <stop
     id="stop10534"
     offset="0.0000000"
     style="stop-color:#000000;stop-opacity:0.26041666;" />
  <stop
     id="stop10536"
     offset="1"
     style="stop-color:#000000;stop-opacity:0;" />
</linearGradient>

  
  
  
  
  
  
  
  
  
  
  
  
  
  
  
  
  
  
  
 
   
  
    
    
   <metadata
   id="CorelCorpID_0Corel-Layer" />

 
  <clipPath
   id="id0">
    <path
   id="path9"
   d="M 106.022,121.783 C 93.6548,122.1174 80.5772,124.8295 66.6992,129.482 C 80.1165,149.7217 95.9778,169.0525 112.497,187.569 C 127.8762,179.8852 143.6538,172.2014 160.412,164.518 C 160.233,164.1986 120.4448,135.6091 106.022,121.783 L 106.022,121.783 z " />

   </clipPath>

   <style
   id="style6"
   type="text/css">
   
    .fil4 {fill:none}
    .fil1 {fill:#EF7900}
    .fil3 {fill:white}
    .fil0 {fill:#EF7900;fill-rule:nonzero}
    .fil2 {fill:white;fill-rule:nonzero}
   
  </style>

  </defs>
  <path
     style="fill-opacity:0.4"
     id="path4"
     d="M 88,49 C 88,78.632996 77.637,89 48,89 18.365,89 8,78.633 8,49 8,19.365 18.365,9 48,9 77.637,9 88,19.365 88,49 z" />
  <linearGradient
     id="SVGID_1_"
     y1="8"
     x1="47.9995"
     y2="88.000504"
     x2="47.9995"
     gradientUnits="userSpaceOnUse">
    <stop
       offset="0"
       style="stop-color:#ffc159;stop-opacity:1;"
       id="stop7" />
    <stop
       offset="1"
       style="stop-color:#a93400;stop-opacity:1;"
       id="stop9" />
    <stop
       offset="0"
       style="stop-color:#daa76c;stop-opacity:1;"
       id="stop110" />
    <stop
       offset="1"
       style="stop-color:#9e8156;stop-opacity:1;"
       id="stop112" />
  </linearGradient>
  <path
     style="fill:url(#SVGID_1_);fill-opacity:1;fill-rule:nonzero"
     id="path11"
     d="M 88,48 C 88,77.632996 77.637,88 48,88 18.365,88 8,77.633 8,48 8,18.365 18.365,8 48,8 77.637,8 88,18.365 88,48 z" />
  <rect
     width="96"
     x="0"
     y="0"
     height="96"
     style="fill:none"
     id="rect13" />
  <linearGradient
     id="SVGID_2_"
     y1="8.2533998"
     x1="47.9995"
     y2="87.498497"
     x2="47.9995"
     gradientUnits="userSpaceOnUse">
    <stop
       offset="0"
       style="stop-color:#ffffff;stop-opacity:1"
       id="stop16" />
    <stop
       offset="1"
       style="stop-color:#ffffff;stop-opacity:0"
       id="stop18" />
    <stop
       offset="0"
       style="stop-color:#ded691;stop-opacity:1;"
       id="stop119" />
    <stop
       offset="1"
       style="stop-color:#9e8256;stop-opacity:1;"
       id="stop121" />
  </linearGradient>
  <path
     style="fill:url(#SVGID_2_);fill-opacity:1;stroke-opacity:0.25"
     id="path20"
     d="M 48,8 C 18.365,8 8,18.365 8,48 8,77.632996 18.365,88 48,88 77.637,88 88,77.633 88,48 88,18.365 77.637,8 48,8 z m 0,79 C 18.842,87 9,77.158 9,48 9,18.842003 18.842,9 48,9 77.158005,9 87,18.842 87,48 87,77.158005 77.158,87 48,87 z" />
  <linearGradient
     gradientTransform="matrix(0.7071,-0.7071,0.7071,0.7071,-208.9813,3059.7412)"
     id="SVGID_3_"
     y1="-1947.9287"
     x1="2309.3584"
     y2="-1947.9287"
     x2="2344.3584"
     gradientUnits="userSpaceOnUse">
    <stop
       offset="0"
       style="stop-color:#58595b;stop-opacity:1"
       id="stop37" />
    <stop
       offset="1"
       style="stop-color:#000000;stop-opacity:1"
       id="stop39" />
  </linearGradient>
  <linearGradient
     gradientTransform="matrix(0.7071,-0.7071,0.7071,0.7071,-208.9813,3059.7412)"
     id="SVGID_4_"
     y1="-1957.9277"
     x1="2309.3584"
     y2="-1957.9277"
     x2="2313.3604"
     gradientUnits="userSpaceOnUse">
    <stop
       offset="0"
       style="stop-color:#58595b;stop-opacity:1"
       id="stop128" />
    <stop
       offset="1"
       style="stop-color:#000000;stop-opacity:1"
       id="stop130" />
  </linearGradient>
  <linearGradient
     id="SVGID_5_"
     y1="10.3501"
     x1="54.292"
     y2="38.933998"
     x2="59.292"
     gradientUnits="userSpaceOnUse">
    <stop
       offset="0"
       style="stop-color:#58595b;stop-opacity:1"
       id="stop51" />
    <stop
       offset="1"
       style="stop-color:#000000;stop-opacity:1"
       id="stop53" />
  </linearGradient>
  <linearGradient
     id="SVGID_6_"
     y1="12.6343"
     x1="32.5508"
     y2="45.134201"
     x2="42.1758"
     gradientUnits="userSpaceOnUse">
    <stop
       offset="0"
       style="stop-color:#58595b;stop-opacity:1"
       id="stop58" />
    <stop
       offset="1"
       style="stop-color:#000000;stop-opacity:1"
       id="stop137" />
  </linearGradient>
  <linearGradient
     id="SVGID_7_"
     y1="35.227501"
     x1="57.148399"
     y2="38.142101"
     x2="60.063"
     gradientUnits="userSpaceOnUse">
    <stop
       offset="0"
       style="stop-color:#ffffff;stop-opacity:1"
       id="stop65" />
    <stop
       offset="0.73619998"
       style="stop-color:#ffffff;stop-opacity:0"
       id="stop67" />
    <stop
       offset="1"
       style="stop-color:#ffffff;stop-opacity:0"
       id="stop69" />
  </linearGradient>
  <linearGradient
     id="SVGID_8_"
     y1="37.241199"
     x1="44.617699"
     y2="43.785599"
     x2="38.073299"
     gradientUnits="userSpaceOnUse">
    <stop
       offset="0"
       style="stop-color:#ffffff;stop-opacity:1"
       id="stop74" />
    <stop
       offset="0.73619998"
       style="stop-color:#ffffff;stop-opacity:0"
       id="stop145" />
    <stop
       offset="1"
       style="stop-color:#ffffff;stop-opacity:0"
       id="stop147" />
  </linearGradient>
  <linearGradient
     id="SVGID_9_"
     y1="45.5"
     x1="47.9995"
     y2="53.876598"
     x2="47.9995"
     gradientUnits="userSpaceOnUse">
    <stop
       offset="0"
       style="stop-color:#ffffff;stop-opacity:1"
       id="stop83" />
    <stop
       offset="1"
       style="stop-color:#6d6e70;stop-opacity:1"
       id="stop85" />
  </linearGradient>
  <path
     inkscape:connector-curvature="0"
     style="fill:#800000;fill-opacity:1;fill-rule:nonzero;stroke:#552200;stroke-width:0.75;stroke-miterlimit:4;stroke-dasharray:none;stroke-opacity:1"
     d="m 48.638952,21.641174 -0.09205,0.0055 c -3.811481,0.104038 -7.724648,0.574789 -11.754999,1.383514 -4.028572,0.808358 -8.177421,1.955437 -12.448064,3.401377 l -0.265313,0.0875 0.01083,0.01641 c -7.326109,2.353632 -7.143984,3.210467 -4.434521,9.400277 0.254822,0.46992 0.515786,0.948332 0.779696,1.432734 0.109258,0.430045 0.254888,0.843523 0.438579,1.224931 0.106631,0.221356 0.225795,0.435808 0.357361,0.634346 0.13225,0.199529 0.272916,0.384534 0.427749,0.552313 l 0.0054,0 c 0.04168,0.04533 0.09133,0.08251 0.146193,0.109368 0.360845,0.657434 0.731033,1.324515 1.104569,2.00145 0.133256,0.550907 0.322916,1.083475 0.568529,1.569448 0.105657,0.209063 0.227697,0.41119 0.35736,0.607 0.129716,0.19591 0.269208,0.3772 0.416921,0.546843 l 0.02166,0.02735 c 0.06878,0.07779 0.158649,0.129682 0.254484,0.158581 0.222359,0.403144 0.445693,0.811597 0.671405,1.219469 0.112058,0.823336 0.34867,1.621712 0.714722,2.335034 0.09829,0.191611 0.203055,0.375043 0.319458,0.552311 0.117139,0.178271 0.243033,0.351707 0.379019,0.514035 l 0.01083,0.01095 c 0.142433,0.168659 0.365697,0.233916 0.573943,0.185926 l 0.0054,0 c 9.94e-4,-9.85e-4 0.0044,-0.0045 0.0054,-0.0055 0.35893,0.637985 0.723492,1.280399 1.088325,1.924895 0.150213,0.762513 0.411992,1.499876 0.790525,2.170977 0.097,0.171987 0.199547,0.343511 0.314044,0.508569 0.115297,0.166223 0.240126,0.32495 0.36819,0.475755 0.114007,0.134243 0.274135,0.20667 0.43858,0.213264 0.353916,0.621862 0.709942,1.245502 1.066667,1.87021 0.117663,0.884633 0.388356,1.750091 0.839256,2.531895 0.08987,0.155905 0.18943,0.306123 0.292386,0.45388 0.103125,0.147899 0.212107,0.290707 0.330288,0.432007 l 0,0.0055 c 0.153387,0.183454 0.39463,0.251701 0.61726,0.202332 3.12e-4,-3.3e-5 0.0042,-1e-5 0.0054,0 0.570362,0.990055 1.138483,1.979392 1.711,2.963903 -3.3e-5,3.94e-4 9e-6,0.005 0,0.0055 0.01114,0.07701 0.02434,0.15853 0.0379,0.235144 0.145809,0.820878 0.432238,1.624206 0.877157,2.362374 0.0854,0.141683 0.175946,0.280315 0.276143,0.421069 0.09762,0.13707 0.20151,0.275281 0.314044,0.410134 l 0.0054,0 c 0.158205,0.188598 0.401808,0.270085 0.628088,0.224207 1.438552,2.447122 2.866505,4.851952 4.261256,7.163673 0.769687,1.292381 1.478915,2.029041 3.086297,1.126505 1.20153,-0.609527 2.417614,-1.216509 3.638582,-1.820996 0.740564,1.425944 1.455999,3.118272 1.797629,4.281798 0.139666,-0.447975 0.574539,-1.384482 0.703896,-2.017859 0.50127,0.628424 1.437636,1.186975 1.943827,1.471016 C 51.90737,76.013695 51.18049,74.110135 50.279559,72.465 c 10.19573,-4.999385 20.667542,-9.832957 28.334376,-14.589836 0.06092,-0.03445 0.113705,-0.07761 0.151607,-0.120308 0.0071,-0.0083 0.01546,-0.01898 0.02165,-0.02734 0.288507,-0.402893 -0.356881,-1.051015 -1.088321,-0.984318 -0.390014,-1.250203 0.05316,-2.962595 1.115397,-4.98723 0.27024,-0.515131 0.586405,-1.056395 0.936718,-1.613199 0.155792,-0.247658 0.319052,-0.498464 0.487306,-0.749177 9.75e-4,-9.84e-4 0.0045,-0.0046 0.0054,-0.0055 0.595563,-0.277643 1.192918,-0.553697 1.792221,-0.8312 l 0.216577,-0.09843 -0.119113,-0.207803 -0.01082,-0.0164 c -1.95e-4,-3.94e-4 -0.0042,-0.0043 -0.0054,-0.0055 -0.09257,-0.103254 -1.038993,-0.814062 -2.588156,-1.968648 C 73.026086,41.413577 55.820086,28.596418 48.703924,21.706794 l -0.06497,-0.06562 z m -4.044676,0.678089 c 0.0055,-5.03e-4 0.01076,4.96e-4 0.01624,0 2.017308,0.462182 4.00618,1.029951 5.966841,1.711621 7.090376,6.345666 19.513389,15.726586 26.363475,20.845752 8.2e-5,0.0018 -8.4e-5,0.0036 0,0.0055 0.08186,1.854668 0.07876,3.715628 -0.01624,5.583285 -3.427906,1.617671 -6.789033,3.232357 -10.098145,4.845051 -4.853516,2.365344 -9.585269,4.719756 -14.2457,7.070715 -5.031493,-5.69939 -9.964052,-11.520407 -14.657205,-17.471716 -4.668842,-5.920379 -9.101518,-11.96921 -13.173614,-18.15527 4.155102,-1.396157 8.193524,-2.508966 12.12319,-3.297476 2.62273,-0.52627 5.197572,-0.906569 7.721157,-1.137436 z M 23.70492,31.347678 c 0.0059,-4.72e-4 0.01029,4.34e-4 0.01624,0 0.01228,-9.25e-4 0.02555,7.88e-4 0.0379,0 0.01275,-8.07e-4 0.02507,6.7e-4 0.0379,0 0.01324,-6.89e-4 0.02457,5.52e-4 0.0379,0 0.02843,-0.0012 0.05781,5.32e-4 0.08663,0 0.04771,-8.66e-4 0.0974,-9.06e-4 0.146193,0 l 0.01625,0.0055 c 4.68e-4,-3.1e-5 0.005,0 0.0054,0 0.0062,0.0011 0.01623,0.0038 0.02166,0.0055 0.0019,9.45e-4 0.009,0.0045 0.01083,0.0055 0.0017,8.46e-4 0.008,0.004 0.01083,0.0055 0.0019,8.67e-4 0.009,0.0045 0.01083,0.0055 -5.1e-5,6.31e-4 1.4e-5,0.005 0,0.0055 6.43e-4,-4.3e-5 0.0049,1.9e-5 0.0054,0 -4e-5,0.0013 -5.1e-5,0.0053 0,0.0055 -6.44e-4,5.32e-4 -0.0049,0.005 -0.0054,0.0055 2.4e-5,6.1e-4 -7e-6,0.005 0,0.0055 -9.17e-4,0.002 -0.0045,0.0092 -0.0054,0.01094 -6.83e-4,7.88e-4 -0.0047,0.0047 -0.0054,0.0055 -7.8e-4,7.68e-4 -0.0046,0.0047 -0.0054,0.0055 -0.0011,0.0011 -0.0047,0.0047 -0.0054,0.0055 -0.0082,0.0064 -0.01787,0.01156 -0.02707,0.01641 -0.0019,9.45e-4 -0.008,0.0041 -0.01083,0.0055 -0.0057,0.0018 -0.0165,0.0041 -0.02166,0.0055 -0.01048,0.0026 -0.02652,0.0048 -0.0379,0.0055 -0.0033,1.12e-4 -0.0075,5e-5 -0.01083,0 l -0.02166,0 c -0.09326,-0.0011 -0.183414,1.97e-4 -0.265313,0.0055 -0.08675,0.0056 -0.168215,0.0155 -0.24907,0.02734 -0.420852,0.06176 -0.787276,0.206153 -1.099154,0.415604 -0.05765,0.03869 -0.119006,0.08356 -0.178681,0.131245 -0.05636,0.04514 -0.109207,0.09208 -0.162436,0.142177 -0.270439,0.254777 -0.495696,0.568371 -0.671404,0.918703 -0.0329,0.06579 -0.06419,0.141228 -0.09746,0.21874 -0.03584,0.08351 -0.06847,0.154434 -0.09205,0.218733 -0.14089,0.384297 -0.232074,0.80289 -0.281557,1.235873 l 0,0.0055 c -0.02628,0.230959 -0.04233,0.46809 -0.04332,0.7109 -9.94e-4,0.240313 0.01427,0.478769 0.0379,0.716369 0.123024,1.2352 0.572226,2.439548 1.299493,3.226392 0.0012,0.0011 0.0047,0.0047 0.0054,0.0055 1.4e-5,6.11e-4 0,0.005 0,0.0055 -6.24e-4,5.32e-4 -0.0049,0.005 -0.0054,0.0055 4.6e-5,6.1e-4 -8e-6,0.005 0,0.0055 -0.0012,0.0012 -0.0051,0.0051 -0.0054,0.0055 -0.0018,0.0019 -0.009,0.0091 -0.01083,0.01094 -0.0031,0.0025 -0.01104,0.0075 -0.01624,0.01094 -0.0044,0.0029 -0.01146,0.0079 -0.01625,0.01094 -0.0035,0.0021 -0.0082,0.0043 -0.01083,0.0055 -5.26e-4,-5.7e-5 -0.0049,1.2e-5 -0.0054,0 -0.0019,9.65e-4 -0.009,0.0045 -0.01083,0.0055 -9.56e-4,0.001 -0.0045,0.0045 -0.0054,0.0055 -4.88e-4,0 -0.0049,3.4e-5 -0.0054,0 -4.68e-4,-8e-6 -0.0049,3e-5 -0.0054,0 -0.0019,1.41e-4 -0.0086,1.41e-4 -0.01083,0 -6.82e-4,-2.7e-5 -0.0048,-1.9e-5 -0.0054,0 -5.46e-4,-4.6e-5 -0.0049,-8e-6 -0.0054,0 -0.0023,0.0011 -0.0087,0.0043 -0.01083,0.0055 -4.88e-4,0 -0.0048,1.9e-5 -0.0054,0 -0.001,1.5e-5 -0.0047,5.7e-5 -0.0054,0 -5.46e-4,1.9e-5 -0.0049,0 -0.0054,0 -4.68e-4,7e-6 -0.0049,-2.3e-5 -0.0054,0 -0.0019,-9.65e-4 -0.009,-0.0045 -0.01083,-0.0055 -4.87e-4,0 -0.0048,-2.7e-5 -0.0054,0 -0.0055,-0.0012 -0.01597,-0.0036 -0.02166,-0.0055 -4.68e-4,-4.92e-4 -0.0049,-0.0048 -0.0054,-0.0055 -2.34e-4,4e-6 -0.0042,1.2e-5 -0.0054,0 -4.87e-4,-4.92e-4 -0.0049,-0.0049 -0.0054,-0.0055 -4.87e-4,-4.92e-4 -0.0048,-0.0049 -0.0054,-0.0055 -0.0012,-1.2e-5 -0.0051,-5e-5 -0.0054,0 l 0,-0.0055 c -0.140222,-0.151912 -0.271174,-0.31856 -0.389847,-0.497632 -0.11934,-0.180122 -0.226398,-0.375163 -0.324874,-0.579654 -0.509864,-1.058591 -0.723029,-2.383014 -0.584772,-3.592775 0.01049,-0.09134 0.02015,-0.178702 0.03249,-0.257014 0.01331,-0.08446 0.03197,-0.168963 0.04873,-0.251552 0.08607,-0.422011 0.218829,-0.823986 0.400677,-1.186651 0.03746,-0.07472 0.07478,-0.146374 0.113706,-0.213271 0.04071,-0.06994 0.08101,-0.137669 0.124534,-0.202333 0.224892,-0.334143 0.506502,-0.618738 0.839256,-0.84214 l 0.01083,-0.01094 c 0.06502,-0.04322 0.134731,-0.08411 0.211167,-0.125776 0.07152,-0.039 0.148214,-0.0803 0.227411,-0.114839 0.303564,-0.132287 0.644258,-0.227054 1.017937,-0.257015 z m 2.820983,3.691209 c 0.0071,-5.91e-4 0.01453,5.51e-4 0.02166,0 0.0045,-1.34e-4 0.01173,-5e-5 0.01624,0 8.97e-4,-2.7e-5 0.0045,6.1e-5 0.0054,0 0.0011,1.1e-5 0.005,1.1e-5 0.0054,0 0.0036,1.9e-5 0.0072,-3.9e-5 0.01083,0 0.0011,3e-6 0.005,3e-5 0.0054,0 0.01528,-9.85e-4 0.02794,7.87e-4 0.04332,0 0.01588,-8.28e-4 0.03275,6.1e-4 0.04873,0 0.02515,-9.85e-4 0.05039,4.72e-4 0.0758,0 l 0.01625,0 c 5.26e-4,-1.9e-5 0.0049,0 0.0054,0 0.0061,0.0012 0.01654,0.004 0.02166,0.0055 0.0046,0.0014 0.01204,0.0037 0.01624,0.0055 0.0031,0.0014 0.0081,0.0039 0.01083,0.0055 0.0043,0.0026 0.01235,0.0079 0.01624,0.01094 0.0011,0.0011 0.0048,0.0049 0.0054,0.0055 0.0011,0.0011 0.005,0.005 0.0054,0.0055 0.0012,0.0011 0.005,0.005 0.0054,0.0055 5.85e-4,5.52e-4 0.0049,0.005 0.0054,0.0055 5.85e-4,5.51e-4 0.0049,0.005 0.0054,0.0055 0.0019,0.0043 0.0042,0.0126 0.0054,0.01641 -3.3e-5,5.32e-4 1.2e-5,0.005 0,0.0055 -1.7e-5,5.32e-4 9e-6,0.005 0,0.0055 l 0.0054,0.01094 c -0.0015,0.0014 -0.005,0.005 -0.0054,0.0055 -2.4e-5,0.0016 -2.9e-5,0.008 0,0.01094 9e-6,0.0012 3e-5,0.0052 0,0.0055 -9.94e-4,9.65e-4 -0.0044,0.0045 -0.0054,0.0055 2.4e-5,5.91e-4 -8e-6,0.005 0,0.0055 -9.94e-4,9.65e-4 -0.0044,0.0045 -0.0054,0.0055 3.7e-5,5.91e-4 -5e-6,0.005 0,0.0055 -9.55e-4,9.65e-4 -0.0044,0.0045 -0.0054,0.0055 -0.0058,0.0076 -0.01405,0.01557 -0.02166,0.02187 -8.39e-4,8.86e-4 -0.0045,0.0044 -0.0054,0.0055 -4.88e-4,4.92e-4 -0.0049,0.005 -0.0054,0.0055 -0.0019,9.85e-4 -0.0089,0.0046 -0.01083,0.0055 -5.26e-4,-5.7e-5 -0.0049,8e-6 -0.0054,0 -0.0023,0.001 -0.0087,0.0043 -0.01083,0.0055 -4.68e-4,-1.9e-5 -0.0049,4.9e-5 -0.0054,0 -0.012,0.0038 -0.02941,0.009 -0.04332,0.01094 -4.68e-4,-8e-6 -0.0049,1.1e-5 -0.0054,0 -0.0011,5.3e-5 -0.0043,-1.9e-5 -0.0054,0 l -0.01624,0 -0.0054,0 c -0.09743,0.0024 -0.187797,0.01232 -0.276142,0.02187 -0.09356,0.0101 -0.180529,0.02154 -0.265313,0.03828 -0.445656,0.0881 -0.840119,0.266898 -1.174958,0.519505 l 0,0.0055 c -0.07146,0.05395 -0.14242,0.112501 -0.216583,0.180456 -0.07287,0.06673 -0.143131,0.133819 -0.205753,0.202334 -0.330349,0.361183 -0.590618,0.809619 -0.785111,1.306958 l -0.01083,0.03281 c -0.03806,0.09928 -0.07587,0.198698 -0.10829,0.300763 -0.03229,0.101627 -0.05919,0.205435 -0.08663,0.311702 -0.137338,0.531197 -0.210873,1.10056 -0.216583,1.678814 l 0,0.03828 c -0.0011,0.23065 0.0092,0.457661 0.02707,0.678089 0.0183,0.224821 0.04322,0.44853 0.08122,0.672619 0.193695,1.142726 0.644817,2.223974 1.337395,3.007651 l 0.0054,0.01093 c 0.0015,0.0027 0.0043,0.0086 0.0054,0.01093 9.94e-4,0.002 0.0045,0.009 0.0054,0.01093 -2.5e-5,5.9e-4 1.3e-5,0.005 0,0.0055 1.8e-5,0.002 4.2e-5,0.009 0,0.01093 4.4e-5,0.0016 3.4e-5,0.0081 0,0.01093 7e-5,0.0018 7e-6,0.009 0,0.01093 -9.16e-4,0.0018 -0.0044,0.009 -0.0054,0.01093 3.1e-5,5.91e-4 -8e-6,0.005 0,0.0055 -9.95e-4,9.85e-4 -0.0044,0.0045 -0.0054,0.0055 3.6e-5,5.91e-4 -7e-6,0.005 0,0.0055 -0.0012,0.0012 -0.0051,0.0051 -0.0054,0.0055 -0.0029,0.0029 -0.0082,0.0084 -0.01083,0.01093 -0.0011,0.0012 -0.0042,0.0044 -0.0054,0.0055 l -0.01083,0.01093 c -0.0018,9.84e-4 -0.009,0.0046 -0.01083,0.0055 -0.0028,0.0014 -0.0092,0.0046 -0.01083,0.0055 -9.36e-4,9.85e-4 -0.0045,0.0045 -0.0054,0.0055 -2.34e-4,-3e-5 -0.0042,-1e-5 -0.0054,0 -0.0019,9.85e-4 -0.0089,0.0045 -0.01083,0.0055 -5.26e-4,-5.5e-5 -0.0049,-4e-6 -0.0054,0 -0.0023,9.84e-4 -0.0086,0.0043 -0.01083,0.0055 -0.01254,0.0018 -0.03155,3.94e-4 -0.04332,0 -0.01558,-0.0012 -0.03495,-0.0054 -0.04873,-0.01093 -0.0021,-0.0012 -0.0085,-0.0045 -0.01083,-0.0055 -5.07e-4,0 -0.0049,-5.3e-5 -0.0054,0 -0.0043,-0.0027 -0.0114,-0.0071 -0.01624,-0.01093 -4.68e-4,-5.91e-4 -0.0049,-0.0049 -0.0054,-0.0055 -4.87e-4,-5.91e-4 -0.0043,-0.0044 -0.0054,-0.0055 l -0.02166,-0.02188 0.0054,-0.0055 C 24.443699,44.165386 24.314223,43.997253 24.197637,43.821162 24.08092,43.644934 23.973326,43.456885 23.872764,43.257911 23.361602,42.246543 23.103001,41.031255 23.114726,39.851067 l 0,-0.03828 c 0.0016,-0.111671 0.0089,-0.228024 0.01624,-0.349986 0.0069,-0.116444 0.01492,-0.229676 0.02707,-0.34451 0.0617,-0.579867 0.191301,-1.138246 0.389848,-1.646002 l 0,-0.0055 c 0.04162,-0.106457 0.08605,-0.206645 0.129949,-0.300767 0.0466,-0.09976 0.09573,-0.192841 0.146193,-0.28436 0.261957,-0.474388 0.597748,-0.884719 1.012522,-1.197593 l 0.01083,-0.01094 c 0.06937,-0.05182 0.146004,-0.102579 0.227411,-0.153111 0.08288,-0.05147 0.161867,-0.09815 0.238241,-0.136715 0.358082,-0.180943 0.764977,-0.307108 1.21286,-0.344509 z m 3.015908,4.090402 c 0.0081,-8.07e-4 0.01892,7.49e-4 0.02707,0 0.001,-9.9e-5 0.0043,3.1e-5 0.0054,0 0.0046,3.8e-5 0.01168,-5.7e-5 0.01624,0 0.0011,-3e-5 0.0044,8.8e-5 0.0054,0 0.0011,1.2e-5 0.0049,1.2e-5 0.0054,0 0.0045,3.8e-5 0.01169,-4.9e-5 0.01624,0 0.0011,1.2e-5 0.0049,3.8e-5 0.0054,0 0.0011,1.2e-5 0.0049,1.2e-5 0.0054,0 0.0045,3.1e-5 0.0117,-4.9e-5 0.01624,0 0.0011,1.2e-5 0.0049,3.8e-5 0.0054,0 0.0011,1.2e-5 0.0049,1.2e-5 0.0054,0 0.0045,3.1e-5 0.01171,-4.1e-5 0.01624,0 0.0011,1.2e-5 0.0049,3.1e-5 0.0054,0 0.0011,1.2e-5 0.0049,1.2e-5 0.0054,0 0.0045,2.7e-5 0.01172,-4.1e-5 0.01624,0 0.0011,8e-6 0.0049,3.1e-5 0.0054,0 l 0.01083,0 c 0.03632,3.94e-4 0.07313,0.01358 0.09746,0.03281 0.0041,0.0036 0.01271,0.01236 0.01625,0.01641 0.0023,0.0022 0.0087,0.0086 0.01083,0.01094 9.69e-4,0.0019 0.0046,0.0091 0.0054,0.01094 8.83e-4,0.0017 0.004,0.0081 0.0054,0.01094 -5e-6,5.12e-4 4.8e-5,0.0049 0,0.0055 9.99e-4,0.0019 0.0045,0.009 0.0054,0.01094 1.7e-5,0.0019 6.1e-5,0.0091 0,0.01094 l 0,0.0164 c 2.1e-5,5.71e-4 -2e-6,0.005 0,0.0055 4.6e-5,5.31e-4 0,0.005 0,0.0055 -0.001,0.002 -0.0045,0.0091 -0.0054,0.01094 4.2e-5,5.32e-4 -8e-6,0.005 0,0.0055 -9.55e-4,0.0019 -0.0044,0.009 -0.0054,0.01094 -0.0014,0.0029 -0.0043,0.0088 -0.0054,0.01094 -0.0028,0.0048 -0.0078,0.01205 -0.01083,0.0164 -0.0083,0.01102 -0.02153,0.02403 -0.03249,0.03281 -9.34e-4,9.65e-4 -0.0045,0.0045 -0.0054,0.0055 -0.02519,0.01689 -0.05845,0.03097 -0.09205,0.03281 l -0.0054,0 c -0.101422,0.006 -0.202335,0.01345 -0.297801,0.02735 -0.09651,0.01401 -0.193713,0.03286 -0.286972,0.05468 -0.478439,0.112105 -0.902846,0.324341 -1.277835,0.612469 -0.09349,0.07191 -0.183979,0.148939 -0.270728,0.229676 -0.08719,0.08109 -0.174427,0.168102 -0.254484,0.257019 -0.409678,0.454913 -0.736414,1.012725 -0.97462,1.635066 l 0,0.0055 0,0.01093 c -0.05028,0.132299 -0.09853,0.254301 -0.135364,0.371855 -0.03905,0.124611 -0.07477,0.254826 -0.108291,0.38826 -0.167174,0.665475 -0.240721,1.375214 -0.221997,2.083484 l 0,0.0164 c 0.0057,0.20397 0.01697,0.404226 0.0379,0.601531 0.02118,0.199872 0.04968,0.400065 0.08663,0.596062 0.190688,1.011748 0.594089,1.960033 1.218275,2.701416 l 0.0054,0.0055 c 0.0032,0.0043 0.0084,0.0118 0.01083,0.0164 0.0058,0.01251 0.01009,0.03037 0.01083,0.04375 2.9e-5,0.0044 3.12e-4,0.01178 0,0.0164 -0.0039,0.03014 -0.02117,0.06306 -0.04873,0.0875 l -0.01083,0.0055 c -9.36e-4,9.84e-4 -0.0045,0.0045 -0.0054,0.0055 -0.0042,0.0029 -0.01242,0.0087 -0.01624,0.01093 -0.0025,0.0014 -0.0085,0.0044 -0.01083,0.0055 -0.0048,0.0016 -0.01643,0.0042 -0.02166,0.0055 -0.0018,9.84e-4 -0.009,0.0045 -0.01083,0.0055 -0.03223,0.0073 -0.06843,0.0047 -0.09746,-0.0055 -0.0129,-0.005 -0.02697,-0.01312 -0.0379,-0.02187 -0.0012,-0.0012 -0.0049,-0.0049 -0.0054,-0.0055 -0.0023,-0.0022 -0.0081,-0.0081 -0.01083,-0.01093 l -0.01083,-0.01095 c -0.12512,-0.149361 -0.238847,-0.306414 -0.346532,-0.470285 -0.108298,-0.16486 -0.207247,-0.337449 -0.297801,-0.514034 -0.469413,-0.914738 -0.71337,-1.97941 -0.741794,-3.051402 l 0,-0.0164 c -0.0035,-0.142323 -0.004,-0.28386 0,-0.426536 0.0037,-0.134823 0.0096,-0.277048 0.02166,-0.426539 0.05839,-0.724854 0.213066,-1.431991 0.460237,-2.078011 0.04826,-0.126005 0.104665,-0.256558 0.162437,-0.382791 0.05789,-0.126438 0.116488,-0.246277 0.17868,-0.36092 0.325507,-0.600276 0.747532,-1.118231 1.256177,-1.509292 l 0,-0.0055 0.0054,0 c 0.07712,-0.05909 0.159622,-0.117011 0.24907,-0.174991 0.08799,-0.05704 0.173271,-0.111899 0.259898,-0.158587 0.417599,-0.224865 0.874478,-0.381732 1.386127,-0.432006 z m 3.394926,4.588035 c 0.0011,8e-6 0.0048,2e-5 0.0054,0 0.0011,-8e-6 0.0043,-4.9e-5 0.0054,0 0.0022,9.9e-5 0.0086,-3.7e-5 0.01083,0 0.0011,8e-6 0.0048,5.7e-5 0.0054,0 l 0.0054,0 c 0.0011,8e-6 0.0048,2.6e-5 0.0054,0 0.0071,-1.67e-4 0.0159,-1.48e-4 0.02166,0 0.0019,-4.1e-5 0.009,-8e-6 0.01083,0 0.0062,0.0012 0.01609,0.0037 0.02166,0.0055 0.0047,0.0016 0.01185,0.0039 0.01624,0.0055 0.01144,0.0042 0.02651,0.01034 0.0379,0.0164 0.0019,7.88e-4 0.009,0.0045 0.01083,0.0055 9.56e-4,9.85e-4 0.0045,0.0045 0.0054,0.0055 0.0045,0.0042 0.01285,0.01284 0.01624,0.0164 0.0048,0.0058 0.01262,0.01642 0.01624,0.02188 0.0032,0.0058 0.0079,0.01566 0.01083,0.02188 9.95e-4,0.002 0.0045,0.0091 0.0054,0.01093 0.0017,0.0056 0.0044,0.01611 0.0054,0.02187 2e-6,0.0018 4.4e-5,0.0091 0,0.01093 l 0.0054,0.0055 c 5.7e-5,9.85e-4 -1.8e-5,0.0041 0,0.0055 -6e-6,0.0031 4.7e-5,0.009 0,0.01093 2.8e-5,5.91e-4 0,0.005 0,0.0055 -0.0011,0.0022 -0.0044,0.0086 -0.0054,0.01093 -2e-6,5.91e-4 -4.2e-5,0.0049 0,0.0055 5.7e-5,0.002 -1.9e-5,0.009 0,0.01093 -9.55e-4,0.002 -0.0044,0.009 -0.0054,0.01093 -9.36e-4,0.002 -0.0044,0.009 -0.0054,0.01093 -5e-6,0.0012 -7e-6,0.0052 0,0.0055 -0.001,0.002 -0.004,0.0081 -0.0054,0.01093 -0.0027,0.0043 -0.0079,0.01243 -0.01083,0.0164 -9.56e-4,9.84e-4 -0.0045,0.0045 -0.0054,0.0055 -8.39e-4,9.84e-4 -0.0045,0.0045 -0.0054,0.0055 -8.97e-4,9.85e-4 -0.0045,0.0045 -0.0054,0.0055 -9.56e-4,9.85e-4 -0.0044,0.0045 -0.0054,0.0055 -0.0011,0.0012 -0.0047,0.0047 -0.0054,0.0055 -0.0042,0.0034 -0.01166,0.0079 -0.01624,0.01093 -0.0019,9.85e-4 -0.0089,0.0045 -0.01083,0.0055 -0.0074,0.0039 -0.01823,0.0077 -0.02707,0.01093 -0.01348,0.0046 -0.02983,0.0095 -0.04332,0.01093 l -0.0054,0 c -0.105218,0.0104 -0.206595,0.02484 -0.308629,0.04375 -0.100739,0.01871 -0.203387,0.04356 -0.303215,0.07109 -0.506321,0.139792 -0.961851,0.386057 -1.364468,0.710899 -0.109719,0.08851 -0.217102,0.178499 -0.314045,0.27342 -0.09854,0.09627 -0.19002,0.199217 -0.281556,0.306238 -0.466775,0.545791 -0.835015,1.216242 -1.088326,1.952239 l 0,0.0055 c -0.05047,0.146961 -0.09528,0.296803 -0.135364,0.44294 -0.04169,0.15187 -0.07686,0.303892 -0.108291,0.453881 -0.164289,0.784371 -0.213753,1.609587 -0.129949,2.422529 l 0,0.0055 c 0.01909,0.184537 0.04553,0.364909 0.0758,0.535913 0.03015,0.170573 0.06784,0.345533 0.113706,0.524974 0.228506,0.893918 0.631425,1.731803 1.22369,2.427993 l 0.0054,0.0055 c 0.0032,0.0043 0.0079,0.01156 0.01083,0.0164 0.0037,0.0065 0.0083,0.01556 0.01083,0.02187 9.71e-4,0.002 0.0045,0.009 0.0054,0.01093 -3e-5,0.002 5.5e-5,0.009 0,0.01093 0.0025,0.01154 0.0049,0.02588 0.0054,0.03828 7e-6,9.84e-4 1.9e-5,0.0045 0,0.0055 1.4e-5,0.0012 4.5e-5,0.005 0,0.0055 1.1e-5,5.91e-4 -2e-6,0.005 0,0.0055 1.9e-5,5.9e-4 -4e-6,0.005 0,0.0055 -9.71e-4,0.002 -0.0044,0.009 -0.0054,0.01093 5.5e-5,0.002 -2.9e-5,0.009 0,0.01093 -9.9e-4,9.84e-4 -0.0044,0.0045 -0.0054,0.0055 -0.0026,0.0058 -0.0074,0.01574 -0.01083,0.02187 -5.67e-4,5.91e-4 -0.0049,0.005 -0.0054,0.0055 -0.0038,0.005 -0.01156,0.01613 -0.01624,0.02188 -0.0012,0.0012 -0.0043,0.0043 -0.0054,0.0055 -0.0012,0.0012 -0.0042,0.0044 -0.0054,0.0055 l -0.0054,0.0055 -0.0054,0.0055 c -0.0036,0.0026 -0.0123,0.0085 -0.01624,0.01093 -5.36e-4,-5.7e-5 -0.0049,4e-6 -0.0054,0 -0.0023,9.85e-4 -0.0087,0.0043 -0.01083,0.0055 -0.0057,0.0027 -0.01539,0.0082 -0.02166,0.01093 -4.7e-4,-10e-6 -0.0049,4.8e-5 -0.0054,0 -4.6e-4,-1.7e-5 -0.0049,5.1e-5 -0.0054,0 -0.0587,0.01377 -0.12392,-0.0027 -0.167851,-0.04375 -0.0022,-0.0022 -0.0081,-0.0081 -0.01083,-0.01093 l -0.0054,0 c -0.122419,-0.144113 -0.23158,-0.292828 -0.335702,-0.442947 -0.104921,-0.151173 -0.205894,-0.307272 -0.297801,-0.470286 -0.470212,-0.833653 -0.744968,-1.779134 -0.84467,-2.745168 l 0,-0.0055 c -0.01695,-0.165228 -0.03127,-0.328654 -0.0379,-0.492159 -0.0068,-0.166595 -0.0086,-0.334127 -0.0054,-0.497632 0.01651,-0.846784 0.162284,-1.684179 0.42775,-2.455331 l 0,-0.0055 c 0.05175,-0.15034 0.111198,-0.295191 0.173266,-0.442948 0.06017,-0.143149 0.12857,-0.289517 0.200338,-0.432006 0.360195,-0.714327 0.830071,-1.337822 1.407785,-1.804593 l 0.0054,0 c 0.08613,-0.06947 0.17476,-0.134487 0.265314,-0.196863 0.08889,-0.06128 0.185473,-0.119303 0.281557,-0.174988 0.479355,-0.277851 1.011123,-0.463637 1.597294,-0.52497 z m 3.681898,5.205965 c 3.12e-4,4.7e-5 0.0042,1.2e-5 0.0054,0 0.0011,3.1e-5 0.0048,3.9e-5 0.0054,0 0.0025,-4.1e-5 0.0083,-1.03e-4 0.01083,0 0.01413,9.85e-4 0.03119,0.0036 0.04332,0.0055 5.27e-4,-2e-5 0.0049,6e-6 0.0054,0 0.005,9.84e-4 0.01672,0.0043 0.02166,0.0055 4.87e-4,-1.1e-5 0.0049,4.2e-5 0.0054,0 0.006,0.0026 0.01677,0.0086 0.02166,0.01093 0.0083,0.0042 0.01964,0.01119 0.02707,0.0164 0.0057,0.0043 0.01473,0.01056 0.02166,0.01641 0.0011,0.0012 0.0049,0.005 0.0054,0.0055 0.0012,0.0012 0.0044,0.0043 0.0054,0.0055 9.16e-4,0.002 0.0045,0.009 0.0054,0.01093 5.85e-4,5.91e-4 0.0049,0.005 0.0054,0.0055 0.01292,0.01977 0.02381,0.04694 0.02707,0.07109 -2.5e-5,0.0012 -3.7e-5,0.0049 0,0.0055 1.83e-4,0.007 1.42e-4,0.01583 0,0.02188 3.8e-5,0.002 5e-6,0.0091 0,0.01093 2.2e-5,5.91e-4 -2e-6,0.005 0,0.0055 -9.95e-4,0.002 -0.0045,0.009 -0.0054,0.01093 -0.0014,0.0053 -0.0039,0.01672 -0.0054,0.02188 -0.02314,0.06536 -0.08453,0.115412 -0.162437,0.125768 -0.114313,0.01532 -0.224569,0.03715 -0.330287,0.06016 -0.109648,0.02388 -0.220074,0.05033 -0.324874,0.08203 -0.541674,0.163948 -1.040831,0.435577 -1.489003,0.787459 -0.120752,0.09487 -0.240162,0.196052 -0.35736,0.306235 -0.115595,0.108638 -0.223955,0.220858 -0.330288,0.33904 -0.547681,0.608639 -0.991914,1.354862 -1.299493,2.165511 -0.05867,0.154812 -0.111543,0.319767 -0.162437,0.48669 -0.05072,0.166169 -0.09699,0.328156 -0.135364,0.492163 -0.200642,0.856018 -0.257376,1.757046 -0.146193,2.630325 0.01976,0.154809 0.04505,0.311051 0.0758,0.464815 0.03155,0.157725 0.06765,0.312902 0.108291,0.459352 0.215473,0.775836 0.582441,1.507037 1.115398,2.143632 l 0.0054,0.0055 c 2.3e-5,0.0012 1.5e-5,0.0052 0,0.0055 5.85e-4,5.91e-4 0.0049,0.005 0.0054,0.0055 9.56e-4,0.002 0.0045,0.009 0.0054,0.01093 0.0012,0.0024 0.0043,0.0085 0.0054,0.01095 9.75e-4,0.002 0.0045,0.009 0.0054,0.01093 9.94e-4,0.002 0.0045,0.009 0.0054,0.01095 -1.6e-5,0.002 5.3e-5,0.009 0,0.01093 -2.3e-5,5.91e-4 3e-6,0.005 0,0.0055 9.94e-4,0.002 0.0045,0.009 0.0054,0.01095 -1.9e-5,5.91e-4 8e-6,0.005 0,0.0055 -1.9e-5,0.0012 -2.4e-5,0.005 0,0.0055 7.6e-5,0.0026 5.2e-5,0.0084 0,0.01093 3.3e-5,0.002 5e-6,0.009 0,0.01093 2.9e-5,5.91e-4 -2e-6,0.005 0,0.0055 -0.001,0.002 -0.0045,0.0091 -0.0054,0.01093 5.8e-5,0.002 -2.3e-5,0.009 0,0.01093 -9.36e-4,0.002 -0.0044,0.009 -0.0054,0.01093 -9.36e-4,0.002 -0.0044,0.009 -0.0054,0.01093 -0.0011,0.0024 -0.0042,0.0085 -0.0054,0.01093 -9.16e-4,0.0018 -0.004,0.0081 -0.0054,0.01095 -0.0028,0.0046 -0.0075,0.01197 -0.01083,0.0164 -9.55e-4,9.85e-4 -0.0044,0.0045 -0.0054,0.0055 -0.0026,0.0036 -0.0082,0.01256 -0.01083,0.0164 -0.0014,0.0016 -0.0049,0.0048 -0.0054,0.0055 l -0.01624,0.01093 c -0.0042,0.0032 -0.01145,0.0081 -0.01624,0.01093 -0.0065,0.0037 -0.01543,0.008 -0.02166,0.01093 -4.68e-4,-7e-6 -0.0048,5.8e-5 -0.0054,0 -9.56e-4,9.85e-4 -0.0045,0.0045 -0.0054,0.0055 -4.68e-4,4e-6 -0.0049,4.9e-5 -0.0054,0 -0.0019,9.85e-4 -0.0089,0.0045 -0.01083,0.0055 -4.87e-4,4e-6 -0.0048,2.3e-5 -0.0054,0 -4.68e-4,4e-6 -0.0049,2.9e-5 -0.0054,0 -0.07237,0.01656 -0.152883,-0.0033 -0.200338,-0.06015 -0.109088,-0.130375 -0.212183,-0.266331 -0.30863,-0.404668 -0.09656,-0.138494 -0.18803,-0.277657 -0.270728,-0.421074 -0.428841,-0.743468 -0.683331,-1.564088 -0.790525,-2.406119 l 0,-0.0055 c -0.02217,-0.174998 -0.03934,-0.350313 -0.04873,-0.530439 -0.0095,-0.181256 -0.01408,-0.364228 -0.01083,-0.54138 0.01694,-0.920151 0.20173,-1.838162 0.525212,-2.690476 l 0,-0.0055 c 0.06396,-0.168464 0.132632,-0.33305 0.205753,-0.492159 0.07348,-0.160098 0.153765,-0.315649 0.238241,-0.470289 0.431052,-0.789068 0.99265,-1.481245 1.662268,-2.00692 0.09265,-0.0726 0.19423,-0.148238 0.297801,-0.21874 0.102105,-0.0695 0.201669,-0.132181 0.303215,-0.191394 0.531606,-0.309645 1.116535,-0.517946 1.743487,-0.601531 -1.6e-5,-3.94e-4 5.7e-5,-0.0049 0,-0.0055 z m 42.872453,0.814804 c -0.03735,0.05846 -0.07192,0.117181 -0.108292,0.174986 -0.353571,0.561889 -0.669188,1.109908 -0.947545,1.640537 -1.362941,2.597726 -1.742464,4.742773 -0.730963,6.162951 -0.03207,0.02655 -0.07333,0.05206 -0.124535,0.07655 -0.567245,0.271306 -18.53447,9.276232 -27.776678,13.857062 -0.67164,-1.062047 -1.444553,-1.92565 -2.301182,-2.515489 l -2.452795,1.263211 c 0.534662,0.155498 0.982163,-0.04988 1.775974,0.885891 0.280943,0.331033 0.601428,0.814104 0.925894,1.378054 -1.931821,0.953077 -3.175674,1.562042 -3.313712,1.60772 -0.729988,0.241616 -1.182418,-0.19295 -1.467345,-0.645271 -3.143137,-4.380849 5.110553,-8.126238 9.524201,-10.6963 0.05901,-0.03106 0.110318,-0.06276 0.157026,-0.09296 0.0085,-0.0055 0.01897,-0.01095 0.02708,-0.0164 0.0014,-7.88e-4 0.0041,-0.005 0.0054,-0.0055 3.89e-4,-1.97e-4 0.005,1.97e-4 0.0054,0 4.712425,-2.377569 9.478429,-4.746128 14.326921,-7.108992 4.083614,-1.990182 8.230961,-3.981981 12.475132,-5.966077 z m -38.703245,5.205963 0.0054,0 c 5.65e-4,0 0.0049,-4e-6 0.0054,0 0.01407,-0.0014 0.02871,-7.87e-4 0.04332,0 0.01399,7.88e-4 0.02934,0.0025 0.04332,0.0055 5.65e-4,-4.9e-5 0.0049,8e-6 0.0054,0 0.07639,0.02168 0.132322,0.08401 0.146194,0.164054 l 0.0054,0 0,0.0055 c 1.3e-5,9.85e-4 5.7e-5,0.0045 0,0.0055 5e-6,3.94e-4 -1.3e-5,0.005 0,0.0055 0.0024,0.02862 -0.0018,0.06171 -0.01083,0.0875 -0.0026,0.006 -0.0084,0.01686 -0.01083,0.02188 -0.0044,0.0085 -0.01065,0.0196 -0.01624,0.02734 -0.01161,0.01607 -0.02709,0.03132 -0.04332,0.04375 -0.02622,0.01908 -0.0624,0.03209 -0.09746,0.03828 l 0,0.0055 -0.0054,0 c -0.118471,0.0203 -0.233263,0.04225 -0.346532,0.07109 -0.111779,0.02842 -0.225885,0.06484 -0.341117,0.1039 -0.574807,0.19472 -1.109522,0.499553 -1.597294,0.89136 l -0.0054,0 c -0.134778,0.108283 -0.262271,0.22298 -0.389848,0.344509 -0.124771,0.118827 -0.247673,0.247992 -0.36819,0.382794 -0.607629,0.679323 -1.103282,1.499508 -1.440271,2.389714 l 0,0.0055 c -0.06336,0.167841 -0.123368,0.346283 -0.17868,0.530436 -0.05415,0.180229 -0.100138,0.361192 -0.140779,0.54138 -0.211008,0.935253 -0.253932,1.907211 -0.08663,2.849062 l 0,0.0055 c 0.02578,0.145109 0.05914,0.283039 0.09205,0.415606 0.03407,0.137358 0.06963,0.273591 0.113705,0.410134 0.225682,0.698481 0.582495,1.363097 1.082911,1.963179 l 0.0054,0.01093 c 5.46e-4,5.9e-4 0.0049,0.005 0.0054,0.0055 0.0098,0.01386 0.02054,0.03385 0.02707,0.04922 0.0018,0.0046 0.0042,0.01191 0.0054,0.0164 0.0019,0.0075 0.0044,0.01973 0.0054,0.02735 -3.4e-5,0.0012 -2.8e-5,0.0049 0,0.0055 1.13e-4,0.007 4.4e-5,0.01617 0,0.02188 -5.2e-5,0.0012 -2.9e-5,0.0041 0,0.0055 3.8e-5,0.0022 8.4e-5,0.009 0,0.01093 -0.0017,0.01174 -0.0075,0.02705 -0.01083,0.03828 2.8e-5,5.91e-4 5e-6,0.0049 0,0.0055 -0.001,0.002 -0.0045,0.0092 -0.0054,0.01093 1.6e-5,5.91e-4 -5e-6,0.005 0,0.0055 -0.0026,0.0057 -0.0077,0.01636 -0.01083,0.02187 -0.0025,0.0041 -0.008,0.01247 -0.01083,0.01641 -0.0019,0.002 -0.0089,0.0091 -0.01083,0.01093 -0.0064,0.0074 -0.01404,0.01526 -0.02166,0.02187 l -0.0054,0.0055 -0.0054,0 c -9.36e-4,9.85e-4 -0.0045,0.0045 -0.0054,0.0055 -0.008,0.0057 -0.01884,0.01138 -0.02707,0.01641 -9.75e-4,9.84e-4 -0.0045,0.0045 -0.0054,0.0055 -0.01481,0.007 -0.02876,0.01306 -0.04332,0.0164 l -0.0054,0 c -0.08026,0.01853 -0.167727,-0.0059 -0.221997,-0.07109 l 0,-0.0055 c -0.102404,-0.122909 -0.199128,-0.246307 -0.292386,-0.377323 -0.09098,-0.127851 -0.177755,-0.26285 -0.259899,-0.399198 -0.416247,-0.690607 -0.686351,-1.43592 -0.823012,-2.203784 l 0,-0.0055 c -0.03414,-0.192446 -0.05787,-0.385279 -0.0758,-0.579653 -0.01792,-0.195237 -0.03022,-0.394969 -0.03249,-0.590598 -0.01191,-1.007038 0.180511,-2.01826 0.536041,-2.958436 0.06999,-0.184901 0.146742,-0.365957 0.227412,-0.541374 0.08411,-0.182731 0.169957,-0.355254 0.259898,-0.519505 0.477683,-0.872084 1.105886,-1.646065 1.840948,-2.236595 0.101219,-0.08133 0.210057,-0.158136 0.319459,-0.235143 0.10785,-0.07594 0.214057,-0.151283 0.324874,-0.218736 0.571042,-0.348007 1.19364,-0.592896 1.851778,-0.705435 z"
     id="path13" />
</svg>
